<svg xmlns="http://www.w3.org/2000/svg" width="314" height="242.582" viewBox="0 0 314 242.582">
    <defs>
        <style>
            .cls-12,.cls-3,.cls-5{fill:none;stroke:#474747;stroke-linecap:round;stroke-linejoin:round;stroke-miterlimit:10}.cls-3{stroke-width:6px}.cls-4{fill:#d2dde1}.cls-12{stroke-width:3px}
        </style>
    </defs>
    <g id="day77-pocket-knief" transform="translate(0 -234)">
        <g id="XMLID_3_" opacity="0.15" transform="translate(46.284 237)">
            <path id="XMLID_10_" d="M608.709 237v143.467c0 9.514-3.894 17.239-8.729 17.239h-76.051c-4.8 0-8.729-7.724-8.729-17.239V267.772" class="cls-3" transform="translate(-399.711 -237)"/>
            <path id="XMLID_9_" d="M0 0L207.868 0" class="cls-3" transform="translate(17.458 160.674)"/>
            <path id="XMLID_18_" d="M0 0L93.509 0" class="cls-3" transform="translate(115.489 68.138)"/>
            <path id="XMLID_22_" d="M0 0L93.509 0" class="cls-3" transform="translate(115.489 134.989)"/>
            <path id="XMLID_17_" d="M758.7 531.292h-6.374a3.431 3.431 0 0 1-3.423-3.423v-49.046a3.431 3.431 0 0 1 3.423-3.423h6.374a3.431 3.431 0 0 1 3.423 3.423v49.047a3.431 3.431 0 0 1-3.423 3.422z" class="cls-3" transform="translate(-560.029 -400.542)"/>
            <path id="XMLID_25_" d="M699.6 531.292h-6.374a3.431 3.431 0 0 1-3.423-3.423v-49.046a3.431 3.431 0 0 1 3.423-3.423h6.374a3.431 3.431 0 0 1 3.423 3.423v49.047a3.411 3.411 0 0 1-3.423 3.422z" class="cls-3" transform="translate(-519.486 -400.542)"/>
            <path id="XMLID_60_" d="M758.7 318.292h-6.374a3.431 3.431 0 0 1-3.423-3.423v-49.046a3.431 3.431 0 0 1 3.423-3.423h6.374a3.431 3.431 0 0 1 3.423 3.423v49.047a3.431 3.431 0 0 1-3.423 3.422z" class="cls-3" transform="translate(-560.029 -254.424)"/>
            <path id="XMLID_58_" d="M611.892 401.623V408a3.431 3.431 0 0 1-3.423 3.423h-49.046A3.431 3.431 0 0 1 556 408v-6.374a3.431 3.431 0 0 1 3.423-3.423h49.047a3.431 3.431 0 0 1 3.422 3.42z" class="cls-3" transform="translate(-427.7 -347.583)"/>
            <path id="XMLID_61_" d="M618.546 354.823V359a3.431 3.431 0 0 1-3.423 3.423h-46A3.431 3.431 0 0 1 565.7 359v-4.176a3.431 3.431 0 0 1 3.423-3.423h46a3.431 3.431 0 0 1 3.423 3.422z" class="cls-3" transform="translate(-434.354 -315.478)"/>
            <path id="XMLID_34_" d="M600.33 553.552l-4.33-1.821a2.369 2.369 0 0 1-1.287-3.077l15.853-38.054a2.369 2.369 0 0 1 3.077-1.287l4.333 1.821a2.369 2.369 0 0 1 1.287 3.077l-15.857 38.057a2.343 2.343 0 0 1-3.076 1.284z" class="cls-3" transform="translate(-454.132 -423.682)"/>
            <path id="XMLID_57_" d="M147.4 460.7h24.9v12.152h-24.9" class="cls-3" transform="translate(-147.4 -390.458)"/>
            <path id="XMLID_59_" d="M24.932 0L0 0" class="cls-3" transform="translate(24.9 82.394)"/>
            <path id="XMLID_38_" d="M0 0L9.546 0" class="cls-3" transform="translate(24.9 70.242)"/>
            <path id="XMLID_42_" d="M0 0H24.9V12.152H0z" class="cls-3" transform="translate(12.434 82.394)"/>
            <path id="XMLID_52_" d="M159.7 538.3h21.038v12.12h-8.07" class="cls-3" transform="translate(-155.838 -443.692)"/>
            <path id="XMLID_54_" d="M0 0H24.9V12.152H0z" class="cls-3" transform="translate(24.9 94.608)"/>
            <path id="XMLID_23_" d="M0 0H38.653V31.337H0z" class="cls-3" transform="translate(51.559 24.743)"/>
            <path id="XMLID_62_" d="M328.6 370.068l7.1-10.268 7.316 9.075" class="cls-3" transform="translate(-271.703 -321.241)"/>
            <path id="XMLID_64_" d="M365.9 357.108l9.891-9.608 7.034 14.13" class="cls-3" transform="translate(-297.291 -312.803)"/>
            <path id="XMLID_63_" d="M357.7 362.343a3.714 3.714 0 0 1 6.72-.722" class="cls-3" transform="translate(-291.666 -321.241)"/>
        </g>
        <g id="Group_334" transform="translate(85.753 276.25)">
            <path id="XMLID_16_" d="M459.3 560.273l1.382-2.826 3.014.848 1.382-2.826 3.046.848 1.382-2.826 3.046.848 1.382-2.826 3.046.848 1.382-2.826 3.046.848 1.382-2.826 3.046.848 1.382-2.826 3.046.848 1.382-2.826 3.046.848 1.382-2.826 3.046.848 1.382-2.826 3.046.848 1.382-2.826-1.821-2.449a7.965 7.965 0 0 0-9.671-2.543L453.3 550.759z" class="cls-4" transform="translate(-396.717 -478.602)"/>
            <path id="XMLID_5_" d="M459.3 560.273l1.382-2.826 3.014.848 1.382-2.826 3.046.848 1.382-2.826 3.046.848 1.382-2.826 3.046.848 1.382-2.826 3.046.848 1.382-2.826 3.046.848 1.382-2.826 3.046.848 1.382-2.826 3.046.848 1.382-2.826 3.046.848 1.382-2.826 3.046.848 1.382-2.826-1.821-2.449a7.965 7.965 0 0 0-9.671-2.543L453.3 550.759z" class="cls-5" transform="translate(-396.717 -478.602)"/>
            <path id="XMLID_11_" fill="#baced3" d="M316.055 454.6l-23.456 4.71L273.1 362a38.081 38.081 0 0 1 26.816 27.13z" transform="translate(-273.1 -362)"/>
            <path id="XMLID_13_" d="M396.9 468.1c-3.517 3.328-6.563 1.287-6.5-1.507.126-4.49 2.481-9.2 4.993-12.78 1.476-2.135 5.275-5.966 7.379-4.3l5.15-22.671L399.7 416.1l-1.507 2.575a169.189 169.189 0 0 0-9.608 19.248 156.2 156.2 0 0 0-7 20.5l-8.485 31.655 14.821 4.773s4.9-5.244 6.343-8.509a110.991 110.991 0 0 0 5.872-17.05z" class="cls-4" transform="translate(-341.7 -399.113)"/>
            <path id="XMLID_7_" d="M396.9 468.1c-3.517 3.328-6.563 1.287-6.5-1.507.126-4.49 2.481-9.2 4.993-12.78 1.476-2.135 5.055-5.118 7.379-4.3l5.15-22.671L399.7 416.1l-1.507 2.575a169.189 169.189 0 0 0-9.608 19.248 156.2 156.2 0 0 0-7 20.5l-8.485 31.655 14.821 4.773s4.9-5.244 6.343-8.509a110.991 110.991 0 0 0 5.872-17.05z" class="cls-5" transform="translate(-341.7 -399.113)"/>
            <path id="XMLID_12_" fill="#e7eff1" d="M294.4 370l20.63 93.227 15.606-3.14-16.14-65.5A38.011 38.011 0 0 0 294.4 370z" transform="translate(-287.712 -367.488)"/>
            <path id="XMLID_4_" d="M316.055 454.6l-23.456 4.71L273.1 362a38.081 38.081 0 0 1 26.816 27.13z" class="cls-5" transform="translate(-273.1 -362)"/>
            <path id="XMLID_15_" fill="#bcc6c9" d="M421.173 504.457l4.49-.157a1.4 1.4 0 0 0 1.413-1.664l-.628-4.459 4.49-.157a1.4 1.4 0 0 0 1.413-1.664l-.628-4.459 4.49-.157a1.4 1.4 0 0 0 1.413-1.664l-.626-4.459 4.49-.157a1.4 1.4 0 0 0 1.41-1.66l-.628-4.459 4.49-.157a1.4 1.4 0 0 0 1.413-1.664l-.628-4.459 4.9-.471a1.454 1.454 0 0 0 1.162-2.167L449.4 459.9l-1.13 8.415-4.333.157a1.519 1.519 0 0 0-1.539 1.821l.6 4.3-4.333.157a1.519 1.519 0 0 0-1.539 1.821l.6 4.3-4.333.157a1.519 1.519 0 0 0-1.539 1.821l.6 4.3-4.333.157a1.519 1.519 0 0 0-1.539 1.821l.6 4.3-4.333.157a1.519 1.519 0 0 0-1.539 1.821l.6 4.3-6.123.22-5.872 7 7.348 6.154z" transform="translate(-366.945 -429.159)"/>
            <path id="XMLID_6_" d="M421.173 504.457l4.49-.157a1.4 1.4 0 0 0 1.413-1.664l-.628-4.459 4.49-.157a1.4 1.4 0 0 0 1.413-1.664l-.628-4.459 4.49-.157a1.4 1.4 0 0 0 1.413-1.664l-.626-4.459 4.49-.157a1.4 1.4 0 0 0 1.41-1.66l-.628-4.459 4.49-.157a1.4 1.4 0 0 0 1.413-1.664l-.628-4.459 4.9-.471a1.454 1.454 0 0 0 1.162-2.167L449.4 459.9l-1.13 8.415-4.333.157a1.519 1.519 0 0 0-1.539 1.821l.6 4.3-4.333.157a1.519 1.519 0 0 0-1.539 1.821l.6 4.3-4.333.157a1.519 1.519 0 0 0-1.539 1.821l.6 4.3-4.333.157a1.519 1.519 0 0 0-1.539 1.821l.6 4.3-4.333.157a1.519 1.519 0 0 0-1.539 1.821l.6 4.3-6.123.22-5.872 7 7.348 6.154z" class="cls-5" transform="translate(-366.945 -429.159)"/>
            <path id="XMLID_8_" fill="#9acf8d" d="M430.52 652.66h-81.64a21.964 21.964 0 0 1-21.98-21.98 21.964 21.964 0 0 1 21.98-21.98h81.64a21.964 21.964 0 0 1 21.98 21.98 21.964 21.964 0 0 1-21.98 21.98z" transform="translate(-310.007 -531.236)"/>
            <path id="XMLID_47_" fill="#85b578" d="M430.52 690.168h-81.64a21.986 21.986 0 0 1-21.823-19.468 22.009 22.009 0 0 0-.157 2.512 21.964 21.964 0 0 0 21.98 21.98h81.64a21.964 21.964 0 0 0 21.98-21.98 22.023 22.023 0 0 0-.157-2.512 21.94 21.94 0 0 1-21.823 19.468z" transform="translate(-310.007 -573.768)"/>
            <path id="XMLID_46_" fill="#bfe8b3" d="M430.52 608.7h-81.64a21.964 21.964 0 0 0-21.98 21.98 19.386 19.386 0 0 0 .126 2.355 22.01 22.01 0 0 1 21.854-19.625h81.64a22.01 22.01 0 0 1 21.854 19.625 19.72 19.72 0 0 0 .126-2.355 21.984 21.984 0 0 0-21.98-21.98z" transform="translate(-310.007 -531.236)"/>
            <path id="XMLID_1_" d="M430.52 652.66h-81.64a21.964 21.964 0 0 1-21.98-21.98 21.964 21.964 0 0 1 21.98-21.98h81.64a21.964 21.964 0 0 1 21.98 21.98 21.964 21.964 0 0 1-21.98 21.98z" class="cls-5" transform="translate(-310.007 -531.236)"/>
            <path id="XMLID_14_" d="M0 2.669L9.671 0" class="cls-12" transform="translate(25.968 72.597)"/>
            <circle id="XMLID_21_" cx="7.913" cy="7.913" r="7.913" class="cls-4" transform="translate(32.311 91.531)"/>
            <path id="XMLID_36_" fill="none" stroke="#474747" stroke-linecap="round" stroke-linejoin="round" stroke-miterlimit="10" stroke-width="6px" d="M365.845 673a13.214 13.214 0 0 1-4.208-19.5" opacity="0.2" transform="translate(-332.027 -561.969)"/>
            <circle id="XMLID_19_" cx="7.913" cy="7.913" r="7.913" class="cls-5" transform="translate(32.311 91.531)"/>
            <path id="XMLID_32_" d="M422.454 488.8s-4.8 12.152-6.154 18.84" class="cls-12" transform="translate(-371.335 -448.985)"/>
            <path id="XMLID_27_" d="M0 0L0 10.079" class="cls-3" transform="translate(40.223 94.42)"/>
            <path id="XMLID_24_" d="M10.079 0L0 0" class="cls-3" transform="translate(35.168 99.444)"/>
            <path id="XMLID_30_" d="M0 0L3.171 14.35" class="cls-12" transform="translate(18.62 56.363)"/>
            <path id="XMLID_20_" d="M0 0L8.918 40.318" class="cls-12" transform="translate(8.509 10.645)"/>
        </g>
    </g>
</svg>
