<svg xmlns="http://www.w3.org/2000/svg" width="269.331" height="223.124" viewBox="0 0 269.331 223.124">
    <defs>
        <style>
            .cls-1{fill:#fff}.cls-3,.cls-7{fill:none;stroke:#474747;stroke-linecap:round;stroke-linejoin:round;stroke-miterlimit:10}.cls-3{stroke-width:6px}.cls-6{fill:#fb9437}.cls-8{fill:#fdba61}.cls-9{fill:#fca649}.cls-10{fill:#ffcb92;opacity:.7}.cls-11{fill:#8c7b5f}.cls-14{fill:#fa8128}
        </style>
    </defs>
    <g id="day80-tea" transform="translate(0 -179.7)">
        <g id="XMLID_2_" opacity="0.15" transform="translate(27.149 182.7)">
            <path id="XMLID_73_" d="M0 0L200.49 0" class="cls-3" transform="translate(0 143.284)"/>
            <g id="XMLID_32_" transform="translate(11.096 49.072)">
                <path id="XMLID_94_" d="M196.2 400.8v-21.9a14.012 14.012 0 0 1 14.005-14h36.171a14.012 14.012 0 0 1 14.005 14.005v22.112" class="cls-3" transform="translate(-181.602 -364.9)"/>
                <path id="XMLID_88_" d="M440.88 549.965H423.4v-47.456a4.322 4.322 0 0 1 4.309-4.309h8.861a4.322 4.322 0 0 1 4.309 4.309z" class="cls-3" transform="translate(-347.61 -462.298)"/>
                <path id="XMLID_76_" d="M0 0H10.342V6.464H0z" class="cls-3" transform="translate(75.79 87.667)"/>
                <path id="XMLID_72_" d="M0 0H10.342V6.464H0z" class="cls-3" transform="translate(7.11 87.667)"/>
                <path id="XMLID_70_" d="M159.48 549.965H142v-47.456a4.322 4.322 0 0 1 4.309-4.309h8.861a4.322 4.322 0 0 1 4.309 4.309z" class="cls-3" transform="translate(-142 -462.298)"/>
                <path id="XMLID_65_" d="M207.2 579.981V563.31a5 5 0 0 1 5.01-5.01h48.237a5 5 0 0 1 5.01 5.01v16.672z" class="cls-3" transform="translate(-189.64 -506.211)"/>
                <path id="XMLID_64_" d="M0 0H58.229V12.308H0z" class="cls-3" transform="translate(17.56 73.77)"/>
                <circle id="XMLID_128_" cx="2.047" cy="2.047" r="2.047" fill="none" stroke="#313031" stroke-linecap="round" stroke-linejoin="round" stroke-miterlimit="10" stroke-width="6px" transform="translate(44.628 24.886)"/>
            </g>
            <path id="XMLID_86_" d="M0 0H38.433V28.118H0z" class="cls-3" transform="translate(87.155)"/>
            <path id="XMLID_84_" d="M0 0H30.946V20.631H0z" class="cls-3" transform="translate(90.899 3.744)"/>
            <path id="XMLID_83_" d="M459 234.811l4.9-8.511 4.9 8.511z" class="cls-3" transform="translate(-362.526 -214.557)"/>
            <path id="XMLID_82_" d="M486.3 226.756l3.259-5.656 5.737 9.911h-6.545" class="cls-3" transform="translate(-382.473 -210.758)"/>
            <circle id="XMLID_81_" cx="2.182" cy="2.182" r="2.182" class="cls-3" transform="translate(112.823 7.38)"/>
            <path id="XMLID_66_" d="M759.385 315.1H738v10.423h21.385" class="cls-3" transform="translate(-566.382 -279.441)"/>
            <path id="XMLID_63_" d="M0 0L21.358 0" class="cls-3" transform="translate(150.26 46.082)"/>
            <path id="XMLID_62_" d="M8.161 0L0 0" class="cls-3" transform="translate(163.457 35.659)"/>
            <path id="XMLID_60_" d="M0 0H21.358V10.423H0z" class="cls-3" transform="translate(160.952 46.082)"/>
            <path id="XMLID_56_" d="M756.045 392.7H738v10.423h6.922" class="cls-3" transform="translate(-566.382 -336.141)"/>
            <path id="XMLID_53_" d="M0 0H21.358V10.423H0z" class="cls-3" transform="translate(150.26 56.533)"/>
        </g>
        <g id="XMLID_39_" transform="translate(120.651 219.625)">
            <path id="XMLID_4_" fill="#efab59" d="M684.749 406.9H677.1l1.347 6.949 5.764-.754a10.134 10.134 0 0 1 9.4 13.9l-8.592 20.954 1.751 9.13 11.851-29.6a14.97 14.97 0 0 0-13.872-20.579z" transform="translate(-615.387 -383.441)"/>
            <path id="XMLID_55_" d="M680.289 407.286s8.107-1.185 13.036 9.023c-3.286-2.208-6.949-3.663-12.928-2.208-1.347-6.95-.108-6.815-.108-6.815z" class="cls-6" transform="translate(-617.337 -383.692)"/>
            <path id="XMLID_52_" d="M708.14 527.7l.754 11.662-2.5 5.225-2.289-8.646z" class="cls-6" transform="translate(-635.115 -471.706)"/>
            <path id="XMLID_43_" d="M684.749 406.9H677.1l1.347 6.949 5.764-.754a10.134 10.134 0 0 1 9.4 13.9l-8.592 20.954 1.751 9.13 11.851-29.6a14.97 14.97 0 0 0-13.872-20.579z" class="cls-7" transform="translate(-615.387 -383.441)"/>
            <path id="XMLID_40_" d="M516.742 475.844h-46.3c-8.457 0-14.867-6.626-13.467-13.9l14.331-74.144h44.547l14.328 74.147c1.428 7.272-5.009 13.897-13.439 13.897z" class="cls-8" transform="translate(-454.409 -369.486)"/>
            <path id="XMLID_41_" d="M516.742 475.844h-46.3c-8.457 0-14.867-6.626-13.467-13.9l14.331-74.144h44.547l14.328 74.147c1.428 7.272-5.009 13.897-13.439 13.897z" class="cls-8" transform="translate(-454.409 -369.486)"/>
            <path id="XMLID_42_" d="M516.742 475.844h-46.3c-8.457 0-14.867-6.626-13.467-13.9l14.331-74.144h44.547l14.328 74.147c1.428 7.272-5.009 13.897-13.439 13.897z" class="cls-8" transform="translate(-454.409 -369.486)"/>
            <path id="XMLID_48_" d="M483.568 466.787l2.451-72.208.215-6.679h-15.028l-14.328 74.147c-1.4 7.272 5.01 13.9 13.467 13.9h27.822c-7.785-.03-14.761-4.231-14.599-9.16z" class="cls-9" transform="translate(-454.336 -369.559)"/>
            <path id="XMLID_46_" d="M471.575 464.848L480.6 387.9h-9.292l-14.328 74.147c-1.4 7.272 5.01 13.9 13.466 13.9h16c-8.461-.03-15.571-5.201-14.871-11.099z" class="cls-6" transform="translate(-454.409 -369.559)"/>
            <path id="XMLID_50_" d="M0 0H45.005V1.724H0z" class="cls-10" transform="translate(16.87 18.853)"/>
            <path id="XMLID_3_" d="M516.742 475.844h-46.3c-8.457 0-14.867-6.626-13.467-13.9l14.331-74.144h44.547l14.328 74.147c1.428 7.272-5.009 13.897-13.439 13.897z" class="cls-7" transform="translate(-454.409 -369.486)"/>
            <path id="XMLID_44_" d="M555.2 362.957a31.733 31.733 0 0 0-44.6 0z" class="cls-11" transform="translate(-493.73 -344.643)"/>
            <path id="XMLID_49_" d="M555.2 362.957a31.733 31.733 0 0 0-44.6 0z" class="cls-11" transform="translate(-493.73 -344.643)"/>
            <path id="XMLID_54_" fill="#736247" d="M510.6 377.942h44.6a29 29 0 0 0-3.851-2.4l-14.086-1.05a65.792 65.792 0 0 0-10.558.054l-12.255 1.023a32.774 32.774 0 0 0-3.85 2.373z" transform="translate(-493.73 -359.628)"/>
            <g id="XMLID_47_" opacity="0.2" transform="translate(23.818 8.914)">
                <path id="Path_56" d="M567.1 357.1c.027.754-6.652-1.7-15.352-1.643-8.7-.054-15.379 2.4-15.352 1.643-.027-.646 6.653-4.255 15.352-4.2 8.703-.055 15.409 3.554 15.352 4.2z" class="cls-1" transform="translate(-536.4 -352.898)"/>
            </g>
            <path id="XMLID_7_" d="M555.2 362.957a31.733 31.733 0 0 0-44.6 0z" class="cls-7" transform="translate(-493.73 -344.643)"/>
            <path id="XMLID_45_" d="M470.423 408.33l-9.75-16.483a1.354 1.354 0 0 1 1.158-2.047h12.147z" class="cls-6" transform="translate(-457.109 -370.947)"/>
            <path id="XMLID_51_" d="M470.861 389.727l-1.185 6.141c-.377 1.966-4.525 3.447-5.548 1.7l-3.07-5.656c-1.05 0-1.158-1.077-.619-.162l9.75 16.483 3.555-18.53h-2.882z" class="cls-14" transform="translate(-456.846 -370.874)"/>
            <path id="XMLID_58_" d="M460.714 391.137l.458.485h12.308l.539-1.724h-12.147c-1.023-.027-1.672.673-1.158 1.239z" class="cls-10" transform="translate(-457.15 -371.018)"/>
            <path id="XMLID_5_" d="M470.423 408.33l-9.75-16.483a1.354 1.354 0 0 1 1.158-2.047h12.147z" class="cls-7" transform="translate(-457.109 -370.947)"/>
            <path id="XMLID_6_" d="M569 329.631v-3.259a6.563 6.563 0 0 1 6.572-6.572 6.563 6.563 0 0 1 6.572 6.572v3.259" class="cls-7" transform="translate(-536.402 -319.8)"/>
            <path id="XMLID_35_" d="M0 0L8.484 49.799" class="cls-7" transform="translate(55.168 31.862)"/>
            <path id="XMLID_57_" fill="#fdba61" d="M453.981 552.527l-5.818 28.522c-1 4.821 1.858 9.346 6.572 11.608a30.264 30.264 0 0 0 14.49-25.533V552.5l-15.244.027z" opacity="0.4" transform="translate(-447.965 -489.827)"/>
        </g>
        <path id="XMLID_8_" d="M255.951 571a13.242 13.242 0 0 0-13.251 13.251 13.242 13.242 0 0 0 13.251 13.249 13.242 13.242 0 0 0 13.249-13.249V571zm5.818 13.251a5.828 5.828 0 0 1-5.818 5.818 5.828 5.828 0 0 1-5.818-5.818 5.828 5.828 0 0 1 5.818-5.818h5.818z" class="cls-6" transform="translate(-177.333 -283.719)"/>
        <path id="XMLID_22_" d="M255.951 571a13.242 13.242 0 0 0-13.251 13.251 13.242 13.242 0 0 0 13.251 13.249 13.242 13.242 0 0 0 13.249-13.249V571zm5.818 13.251a5.828 5.828 0 0 1-5.818 5.818 5.828 5.828 0 0 1-5.818-5.818 5.828 5.828 0 0 1 5.818-5.818h5.818z" class="cls-6" transform="translate(-177.333 -283.719)"/>
        <g id="XMLID_37_" opacity="0.4" transform="translate(65.097 286.742)">
            <path id="XMLID_38_" d="M243.208 584.083a13.242 13.242 0 0 1 13.251-13.251H268.2V569h-13.249a13.242 13.242 0 0 0-13.251 13.251 13.2 13.2 0 0 0 3.824 9.319 13.248 13.248 0 0 1-2.316-7.487z" class="cls-10" transform="translate(-241.7 -569)"/>
        </g>
        <path id="XMLID_31_" d="M256.724 571h1.885c-.646 0-.916 1.077-1.508 4.606-.242 1.427-2.693 1.374-3.959 2.289a7.37 7.37 0 0 0-2.828 5.36l.081-.323c0 .458-.108-.431 0 0a5.8 5.8 0 0 1 5.252-4.471h6.222v5.818a5.834 5.834 0 0 1-5.036 5.764v.054a3.508 3.508 0 0 1-4.363 4.336c-5.09-1.616-9.13-6.572-9.615-11.447a10.815 10.815 0 0 0-.054 1.32 13.242 13.242 0 0 0 13.251 13.251 13.089 13.089 0 0 0 6.06-1.481c.162-.081.3-.162.458-.242a15.342 15.342 0 0 0 1.751-1.185 4.031 4.031 0 0 0 .35-.3c.027-.027.054-.054.081-.054.108-.108.215-.189.323-.3l.081-.081.323-.323a.589.589 0 0 1 .135-.108.71.71 0 0 0 .539-.485 1.76 1.76 0 0 1 .4-.646c.081-.108.135-.188.215-.3.054-.054.081-.135.135-.188.054-.081.135-.189.189-.269s.081-.135.135-.215.108-.188.162-.269a1.092 1.092 0 0 0 .135-.242 2.938 2.938 0 0 0 .215-.4c.054-.108.108-.215.189-.35.027-.081.081-.162.108-.242.054-.108.081-.189.135-.3.027-.081.081-.162.108-.242.054-.108.081-.215.135-.323l.081-.242a1.744 1.744 0 0 0 .108-.35 1.861 1.861 0 0 1 .081-.215c.054-.162.081-.323.135-.485 0-.027.027-.054.027-.108.054-.189.081-.377.135-.593a.458.458 0 0 0 .027-.188l.081-.4c0-.081.027-.162.027-.242.027-.135.027-.269.054-.4 0-.081.027-.162.027-.242 0-.135.027-.3.027-.431v-.189c0-.215.027-.431.027-.619V571z" class="cls-14" transform="translate(-177.406 -283.719)"/>
        <path id="XMLID_20_" d="M255.951 571a13.242 13.242 0 0 0-13.251 13.251 13.242 13.242 0 0 0 13.251 13.249 13.242 13.242 0 0 0 13.249-13.249V571zm5.818 13.251a5.828 5.828 0 0 1-5.818 5.818 5.828 5.828 0 0 1-5.818-5.818 5.828 5.828 0 0 1 5.818-5.818h5.818z" class="cls-7" transform="translate(-177.333 -283.719)"/>
        <path id="XMLID_11_" d="M337.976 595.309a28.575 28.575 0 0 1-28.576-28.576V551.3h57.179v15.433a28.6 28.6 0 0 1-28.603 28.576z" class="cls-8" transform="translate(-226.069 -269.325)"/>
        <g id="XMLID_29_" stroke="#fb9437" stroke-linecap="round" stroke-linejoin="round" stroke-miterlimit="10" stroke-width="6px" opacity="0.7" transform="translate(122.088 281.975)">
            <path id="XMLID_28_" fill="#a9a9a9" d="M462.053 624.036H453.3v-8.807l4.39-4.929 4.363 4.929z" transform="translate(-453.3 -594.41)"/>
            <path id="XMLID_27_" fill="none" d="M0 0L0 15.891" transform="translate(4.39)"/>
        </g>
        <path id="XMLID_26_" d="M325.675 566.733V551.3H309.3v15.433a28.575 28.575 0 0 0 28.576 28.576 28.255 28.255 0 0 0 8.188-1.185 28.637 28.637 0 0 1-20.389-27.391z" class="cls-9" transform="translate(-225.996 -269.325)"/>
        <path id="XMLID_25_" d="M317.965 566.733V551.3H309.4v15.433a28.575 28.575 0 0 0 28.576 28.576 28.124 28.124 0 0 0 4.282-.323 28.575 28.575 0 0 1-24.293-28.253z" class="cls-6" transform="translate(-226.069 -269.325)"/>
        <path id="XMLID_30_" d="M0 0H57.179V1.912H0z" class="cls-10" transform="translate(83.331 282.191)"/>
        <path id="XMLID_1_" d="M337.976 595.309a28.575 28.575 0 0 1-28.576-28.576V551.3h57.179v15.433a28.6 28.6 0 0 1-28.603 28.576z" class="cls-7" transform="translate(-226.069 -269.325)"/>
        <path id="XMLID_21_" fill="#d51c29" d="M456.053 618.036H447.3v-8.807l4.39-4.929 4.363 4.929z" transform="translate(-326.828 -308.05)"/>
        <path id="XMLID_9_" fill="#6ab36f" stroke="#474747" stroke-linecap="round" stroke-linejoin="round" stroke-miterlimit="10" stroke-width="6px" d="M456.053 618.036H447.3v-8.807l4.39-4.929 4.363 4.929z" transform="translate(-326.828 -308.05)"/>
        <path id="XMLID_36_" fill="#88ce8e" d="M448.916 610.845l4.282-4.821-1.508-1.724-4.39 4.929v8.807h1.616z" transform="translate(-326.828 -308.05)"/>
        <path id="XMLID_12_" d="M0 0L0 14.275" class="cls-7" transform="translate(124.862 281.975)"/>
        <path id="XMLID_13_" d="M396.181 387.8a21.553 21.553 0 0 0-3.286 10.773c.215 10.235 7.083 10.262 8.215 17.264.3 1.858-.3 4.848-2.128 9.615" class="cls-7" transform="translate(-287.075 -149.86)"/>
        <path id="XMLID_14_" d="M432.937 422.2c-.781 1.454-2.074 4.929 2.8 10.719 5.279 6.248 4.04 12.659 2.343 17.7" class="cls-7" transform="translate(-315.778 -174.995)"/>
        <path id="XMLID_15_" d="M353.887 432c-2.855 6.841 1.374 11.393 6.087 16.321 3.69 3.878-.027 10.154-1.239 11.447" class="cls-7" transform="translate(-257.897 -182.156)"/>
        <path id="XMLID_16_" d="M0 0L0 10.989" class="cls-7" transform="translate(135.366 287.012)"/>
        <path id="XMLID_33_" d="M456.053 618.036H447.3v-8.807l4.39-4.929 4.363 4.929z" class="cls-3" transform="translate(-326.828 -308.05)"/>
    </g>
</svg>
